<svg xmlns="http://www.w3.org/2000/svg" width="30" height="30" viewBox="0 0 30 30">
  <g id="feat_icon_science" transform="translate(-786 -356)">
    <rect id="bg" width="30" height="30" transform="translate(786 356)" fill="none"/>
    <path id="icon" d="M10477.844,7279a3.81,3.81,0,0,1-2.037-.6,3.959,3.959,0,0,1-1.22-5.4l6.861-11.166a2.244,2.244,0,0,0,.295-1.1v-5.883h-.728a.228.228,0,0,1-.058,0,.931.931,0,0,1,.058-1.86h10.1a.931.931,0,0,1-.061,1.86h-.728v5.883a2.214,2.214,0,0,0,.3,1.1l6.831,11.166h0a4.01,4.01,0,0,1,.551,2,3.927,3.927,0,0,1-3.86,4Zm5.73-18.253a4.034,4.034,0,0,1-.588,2.079l-6.834,11.166a2.052,2.052,0,0,0-.059,2.11,2.007,2.007,0,0,0,1.776,1.067h16.3a2.032,2.032,0,0,0,1.775-1.067,2.179,2.179,0,0,0,0-2.11l-6.835-11.166a3.808,3.808,0,0,1-.59-2.082v-5.883h-4.95Zm-6.3,14.669a.681.681,0,0,1,.026-.714l4.466-7.279h8.5l4.466,7.279a.677.677,0,0,1,.026.714.642.642,0,0,1-.59.356h-16.336A.621.621,0,0,1,10477.277,7275.416Z" transform="translate(-9685 -6895)" fill="#1f1f1f" stroke="rgba(0,0,0,0)" stroke-miterlimit="10" stroke-width="1"/>
  </g>
</svg>
