<svg xmlns="http://www.w3.org/2000/svg" width="30" height="30" viewBox="0 0 30 30">
  <g id="feat_icon_360" transform="translate(-786 -317)">
    <rect id="bg" width="30" height="30" transform="translate(786 317)" fill="none"/>
    <path id="icon" d="M1399.723,3127.511c-8.28,0-15,3.274-15,7.308,0,3.274,4.91,5.756,11,6.692v4l5.99-5.522-5.99-5.478v4c-4.725-.821-8-2.479-8-3.692,0-1.549,4.56-4.385,12-4.385s12,2.835,12,4.385c0,1.067-2.19,2.762-6,3.7v3c5.3-1.125,9-3.7,9-6.694C1414.723,3130.785,1408,3127.511,1399.723,3127.511Z" transform="translate(-598.723 -2803.512)" fill="#1f1f1f" fill-rule="evenodd"/>
  </g>
</svg>
