<svg xmlns="http://www.w3.org/2000/svg" width="30" height="30" viewBox="0 0 30 30">
  <g id="feat_icon_anon" transform="translate(-823 -439)">
    <rect id="bg" width="30" height="30" transform="translate(823 439)" fill="none"/>
    <path id="icon" d="M27.394,1.222a1.2,1.2,0,0,0-1.2-1.216.35.35,0,0,0-.075.011c-2.439.457-8.152,3.119-12.126,3.119S4.309.474,1.865.017a1.158,1.158,0,0,0-1.278,1.1.791.791,0,0,0-.009.1C.387,3.746,0,10.479,0,11.5c0,1.37,4.86,4.51,8.395,4.51,3.432,0,4.127-4.51,5.6-4.51s2.164,4.51,5.6,4.51c3.535,0,8.395-3.141,8.395-4.51C27.982,10.479,27.595,3.746,27.394,1.222ZM10.726,9.274a3.873,3.873,0,0,1-3.54,1.381c-1.674-.385-2.686-2.2-3.031-2.9a.486.486,0,0,1,.061-.55A3.877,3.877,0,0,1,7.76,5.826c1.679.385,2.686,2.2,3.031,2.9A.486.486,0,0,1,10.726,9.274ZM23.845,7.751c-.345.721-1.357,2.514-3.031,2.9a3.986,3.986,0,0,1-3.558-1.375.485.485,0,0,1-.065-.55c.345-.721,1.357-2.514,3.031-2.9a3.92,3.92,0,0,1,3.54,1.381.478.478,0,0,1,.075.545Z" transform="translate(824 446.998)" fill="#1f1f1f"/>
  </g>
</svg>
