<svg xmlns="http://www.w3.org/2000/svg" width="120" height="120" viewBox="0 0 120 120">
  <g id="icon_books" transform="translate(-3256 -1870)">
    <rect id="bg" width="120" height="120" transform="translate(3256 1870)" fill="none"/>
    <path id="icon_books-2" data-name="icon_books" d="M7.229,952.366a1.252,1.252,0,0,0-1.092,1.268v7.038c-1.632.2-3.719.577-4.909.577A1.252,1.252,0,0,0,0,962.518V1001.2a1.252,1.252,0,0,0,1.227,1.268c5.425,0,12.4-2.536,17.8-2.536a7.735,7.735,0,0,1,6.922,3.8,1.208,1.208,0,0,0,1.681.444,1.223,1.223,0,0,0,.43-.444,7.729,7.729,0,0,1,6.922-3.8c5.394,0,12.371,2.536,17.8,2.536A1.252,1.252,0,0,0,54,1001.2V962.518a1.252,1.252,0,0,0-1.227-1.268c-1.19,0-3.277-.374-4.909-.577v-7.038a1.256,1.256,0,0,0-1.221-1.274.52.52,0,0,0-.1.006c-4.848.419-9.278,1.4-12.9,3.589a16.829,16.829,0,0,0-6.633,7.489,16.762,16.762,0,0,0-6.633-7.489c-3.627-2.188-8.057-3.17-12.9-3.589A1.52,1.52,0,0,0,7.229,952.366ZM8.591,955.1c4.062.463,7.7,1.325,10.53,3.031a14.594,14.594,0,0,1,6.652,9V998.5a17.335,17.335,0,0,0-7.308-5.332,28.366,28.366,0,0,0-9.873-1.427Zm36.818,0v36.644a28.366,28.366,0,0,0-9.873,1.427,17.412,17.412,0,0,0-7.308,5.333V967.128a14.616,14.616,0,0,1,6.652-9C37.708,956.431,41.347,955.568,45.409,955.1Zm2.455,8.129c1.086.133,2.405.3,3.682.419v36.168c-4.6-.342-10.96-2.416-16.568-2.416a10.356,10.356,0,0,0-2.4.3,14.432,14.432,0,0,1,3.8-2.118c3.117-1.179,6.609-1.35,10.26-1.35a1.252,1.252,0,0,0,1.227-1.268Z" transform="translate(3289 951.64)" fill="#1f1f1f"/>
  </g>
</svg>
