<svg xmlns="http://www.w3.org/2000/svg" width="120" height="120" viewBox="0 0 120 120">
  <g id="icon_community" transform="translate(-3602 -1891)">
    <rect id="bg" width="120" height="120" transform="translate(3602 1891)" fill="none"/>
    <path id="icon_community-2" data-name="icon_community" d="M56.6,42.91V26.53a6.128,6.128,0,1,0-5.67-9.92L36.61,8.36A6.139,6.139,0,0,0,30.91,0h0a6.137,6.137,0,0,0-6.13,6.13,6.3,6.3,0,0,0,.42,2.23L10.88,16.63A6.133,6.133,0,0,0,.09,19.4,6.127,6.127,0,0,0,5.2,26.54V42.93a6.119,6.119,0,1,0,5.66,9.92l14.33,8.27a6.129,6.129,0,0,0,5.7,8.36h0a6.109,6.109,0,0,0,5.7-8.36l14.34-8.28a6.126,6.126,0,0,0,9.77-7.38A6.06,6.06,0,0,0,56.6,42.91ZM6.13,16.2A4.267,4.267,0,0,1,9.61,18a3.86,3.86,0,0,1,.39.65,4.275,4.275,0,0,1-3.49,6.09c-.12.01-.24.02-.36.02a2.682,2.682,0,0,1-.39-.02,4.269,4.269,0,0,1-2.64-7.27A4.141,4.141,0,0,1,6.13,16.2ZM25.21,36.99l-14.25,8.2a6.09,6.09,0,0,0-3.9-2.29V26.53a6.056,6.056,0,0,0,3.86-2.23L25.2,32.52A6.056,6.056,0,0,0,25.21,36.99ZM49.97,22.7,35.69,30.92a6.056,6.056,0,0,0-3.86-2.23V12.18a6.136,6.136,0,0,0,3.86-2.22l14.3,8.26A6.033,6.033,0,0,0,49.97,22.7ZM29.99,12.18V28.69a6.056,6.056,0,0,0-3.86,2.23L11.84,22.7a6.05,6.05,0,0,0-.02-4.48L26.13,9.96A6.086,6.086,0,0,0,29.99,12.18ZM11.87,46.81l14.28-8.22a6.072,6.072,0,0,0,3.83,2.19V57.29a6.056,6.056,0,0,0-3.86,2.23L11.81,51.26A6,6,0,0,0,11.87,46.81ZM31.83,57.3V40.79a6.117,6.117,0,0,0,3.83-2.19l14.29,8.23a6.112,6.112,0,0,0,.06,4.45L35.69,59.53A6.106,6.106,0,0,0,31.83,57.3Zm4.78-24.78L50.89,24.3a6.056,6.056,0,0,0,3.86,2.23V42.91a6.09,6.09,0,0,0-3.9,2.29L36.6,36.99A6.106,6.106,0,0,0,36.61,32.52Zm19.45-7.78a3.136,3.136,0,0,1-.75,0,4.286,4.286,0,0,1-3.12-1.8,4.339,4.339,0,0,1-.38-.66,4.276,4.276,0,0,1-.4-1.78,4.5,4.5,0,0,1,.42-1.84h0a3.612,3.612,0,0,1,.39-.65,4.276,4.276,0,0,1,6.96,4.97A4.362,4.362,0,0,1,56.06,24.74ZM30.54,59.09c.12-.01.25-.02.37-.02s.25.01.38.02a4.253,4.253,0,0,1,3.11,1.8,3.716,3.716,0,0,1,.38.67,4.277,4.277,0,1,1-4.24-2.47Z" transform="translate(3631.008 1917)" fill="#1f1f1f"/>
  </g>
</svg>
