<svg xmlns="http://www.w3.org/2000/svg" width="120" height="120" viewBox="0 0 120 120">
  <g id="icon_jobs" transform="translate(-3431 -2028)">
    <rect id="bg" width="120" height="120" transform="translate(3431 2028)" fill="none"/>
    <path id="icon_jobs-2" data-name="icon_jobs" d="M15.77,2.47V7.43H7.41A7.564,7.564,0,0,0,0,15.09V43.33A7.568,7.568,0,0,0,7.42,51H47.59A7.566,7.566,0,0,0,55,43.33V15.1a7.547,7.547,0,0,0-7.41-7.67H39.23V2.47A2.459,2.459,0,0,0,36.84,0H18.16A2.466,2.466,0,0,0,15.77,2.47ZM52.38,23.88l.74-.39V43.33a5.506,5.506,0,0,1-1.54,3.97,5.567,5.567,0,0,1-3.9,1.73H7.42A5.582,5.582,0,0,1,1.88,43.4V23.48l.74.39c5.87,3.14,10.69,5.41,19.3,6.09l.38.04.07.38a5.21,5.21,0,0,0,10.25,0l.07-.38.38-.03C41.69,29.29,46.51,27.02,52.38,23.88Zm-24.9,1.86a3.41,3.41,0,0,1,2.49.94,3.375,3.375,0,0,1,1.09,2.42,3.436,3.436,0,0,1-.94,2.49,3.393,3.393,0,0,1-2.42,1.09h-.11a3.428,3.428,0,0,1-2.37-.94,3.393,3.393,0,0,1-1.09-2.42v-.11a3.4,3.4,0,0,1,3.33-3.47M17.65,1.97h19.7V7.43H17.65V1.97Z" transform="translate(3463.001 2060)" fill="#1f1f1f"/>
  </g>
</svg>
