<svg xmlns="http://www.w3.org/2000/svg" width="120" height="120" viewBox="0 0 120 120">
  <g id="icon_perks" transform="translate(-3960 -959)">
    <rect id="bg" width="120" height="120" transform="translate(3960 959)" fill="none"/>
    <path id="icon_perks-2" data-name="icon_perks" d="M37.476,32.334l-7.57-13.16L16.359,42.728l-.007.011a2.34,2.34,0,0,1-4.044-2.355L27.88,13.312c.022-.037.052-.067.074-.1.048-.074.1-.144.156-.215a1.029,1.029,0,0,1,.156-.156c.056-.044.107-.107.167-.156s.137-.107.207-.156a1.679,1.679,0,0,1,.4-.211,1.925,1.925,0,0,1,.2-.078c.07-.022.144-.033.219-.052a1.687,1.687,0,0,1,.226-.037q.111-.006.222,0a2.114,2.114,0,0,1,.219,0,2.211,2.211,0,0,1,.226.037c.07.015.148.03.219.048a1.863,1.863,0,0,1,.2.078c.078.03.156.067.23.1.022.011.048.019.07.03s.044.041.07.056a2.276,2.276,0,0,1,.352.27,1.323,1.323,0,0,1,.1.1,2.179,2.179,0,0,1,.333.444l8.236,14.323L51.09,8.661A30,30,0,1,0,22.162,58.95ZM52.068,9.676,40.954,29,47.5,40.384a2.349,2.349,0,0,1-.855,3.2l-.011.007a2.336,2.336,0,0,1-3.181-.866l-5.2-9.039-14.725,25.6A30,30,0,0,0,52.068,9.676Z" transform="translate(3989.999 989)" fill="#1f1f1f" fill-rule="evenodd"/>
  </g>
</svg>
