<svg xmlns="http://www.w3.org/2000/svg" width="120" height="120" viewBox="0 0 120 120">
  <g id="icon_companies" transform="translate(-4207 -959)">
    <rect id="bg" width="120" height="120" transform="translate(4207 959)" fill="none"/>
    <path id="icon_companies-2" data-name="icon_companies" d="M67.823,44.914a3.746,3.746,0,0,0-.227-1.366A3.828,3.828,0,0,0,68,41.8a4.086,4.086,0,0,0-4.062-4.1,4.13,4.13,0,0,0-4.151,4.1,3.84,3.84,0,0,0,.4,1.753,3.747,3.747,0,0,0-.227,1.366,3.939,3.939,0,0,0,3.091,3.822v3.485H56.166v-26.2a.894.894,0,0,0-.21-.577l-4.945-5.881-.03-.033-.021-.023a.681.681,0,0,0-.053-.048l-.008-.007a.719.719,0,0,0-.066-.05l-.019-.012a.582.582,0,0,0-.05-.03c-.011-.006-.021-.011-.033-.016l-.04-.02-.038-.015-.038-.014-.04-.012-.04-.01-.039-.008-.046-.007-.034,0-.064,0h-.019c-.028,0-.057,0-.085,0l-.02,0c-.02,0-.041.005-.061.01l-.034.008-.046.012-.037.012-.04.014-.039.017-.036.018-.038.02-.015.008L45.3,22.136V17.023a.894.894,0,0,0-.292-.662L27.261.232a.877.877,0,0,0-.95-.151.89.89,0,0,0-.524.814v14.6l-2.33-2.077-.012-.01c-.01-.009-.02-.017-.031-.025l-.035-.027-.033-.021-.038-.023-.034-.019-.04-.019-.036-.015-.041-.015-.037-.012-.045-.012c-.011,0-.023-.006-.035-.008L22.98,13.2l-.023,0c-.028,0-.057,0-.085,0h-.02a.507.507,0,0,0-.064,0l-.032,0-.05.008-.035.008-.044.012-.036.012-.042.016-.034.014-.042.02-.033.017-.04.024-.031.02-.037.028L22.3,13.4l-.006,0L12.141,22.138a.894.894,0,0,0-.31.678V52.222H4.945V48.737a3.857,3.857,0,0,0,2.821-5.2A4.453,4.453,0,0,0,8.125,41.8a4.086,4.086,0,0,0-4.062-4.1A4.086,4.086,0,0,0,0,41.8a4.432,4.432,0,0,0,.366,1.76,4.678,4.678,0,0,0-.19,1.359,3.863,3.863,0,0,0,3,3.822v3.485H.265V54h67.47V52.221H64.821V48.736A3.863,3.863,0,0,0,67.823,44.914ZM45.3,24.212l4.151-2.5V52.221H45.3ZM39.3,13.568V29.241l-7.494,4.2a.893.893,0,0,0-.454.779v18h-3.8V2.9ZM13.6,23.227l8.39-7.214V52.221H13.6Z" transform="translate(4233 987.997)" fill="#1f1f1f" fill-rule="evenodd"/>
  </g>
</svg>
