<svg xmlns="http://www.w3.org/2000/svg" width="120" height="120" viewBox="0 0 120 120">
  <g id="icon_box" transform="translate(-3629 -1870)">
    <rect id="bg" width="120" height="120" transform="translate(3629 1870)" fill="none"/>
    <path id="icon_box-2" data-name="icon_box" d="M55.515,22.8l8.124-8.144a1.135,1.135,0,0,0,.334-.963,1.165,1.165,0,0,0-.565-.859L41.5.152a1.138,1.138,0,0,0-1.392.193L31.986,8.48,23.87.344A1.14,1.14,0,0,0,22.478.152L.572,12.837a1.13,1.13,0,0,0-.565.859,1.156,1.156,0,0,0,.318.963L8.45,22.8.334,30.954a1.148,1.148,0,0,0-.318.963,1.116,1.116,0,0,0,.565.85l8.355,4.846V48.156a1.158,1.158,0,0,0,.581,1L31.422,61.844A1.052,1.052,0,0,0,32,62a1.088,1.088,0,0,0,.581-.152l21.9-12.685a1.175,1.175,0,0,0,.581-1V37.613l8.363-4.846a1.172,1.172,0,0,0,.565-.85,1.158,1.158,0,0,0-.334-.963ZM41.121,2.607,60.942,14.1l-7.249,7.261-1.186-.69L33.864,9.876Zm-7.973,9.532,16.558,9.58,1.87,1.083L33.156,33.473V12.139ZM3.031,14.1,22.86,2.607l7.249,7.269L10.28,21.358Zm7.623,21.84L3.023,31.515l7.249-7.269,19.821,11.49L22.844,43l-12.19-7.061ZM30.833,58.843,11.235,47.49V38.953l11.227,6.5a1.1,1.1,0,0,0,.581.16c.024,0,.04-.032.072-.032a1.113,1.113,0,0,0,.748-.3l6.97-6.988Zm10.28-15.838-7.249-7.261,19.829-11.49,7.249,7.269Z" transform="translate(3657.005 1899.003)" fill="#1f1f1f" fill-rule="evenodd"/>
  </g>
</svg>
