<svg xmlns="http://www.w3.org/2000/svg" width="120" height="120" viewBox="0 0 120 120">
  <g id="icon_custom" transform="translate(-3629 -2028)">
    <rect id="bg" width="120" height="120" transform="translate(3629 2028)" fill="none"/>
    <path id="icon_custom-2" data-name="icon_custom" d="M9176.669,3814.834a1.154,1.154,0,0,1,1.166-1.167c12.905,0,17.5-5.415,17.5-10.5,0-3.711-6.349-7.725-10.969-10.618-.724-.466-1.4-.887-2.028-1.307l1.819-1.609c.442.3.933.606,1.447.934,5.366,3.382,12.063,7.582,12.063,12.6,0,5.927-5.2,12.833-19.835,12.833A1.156,1.156,0,0,1,9176.669,3814.834Zm-25.318.816a1.163,1.163,0,0,1-.047-1.609l24.8-27.395c-.046-.023-.095-.023-.141-.046-.351-.256-8.634-6.464-8.634-14.933,0-7.42,4.689-11.667,12.834-11.667a35.924,35.924,0,0,1,14.514,2.471l-1.681,1.867a34.493,34.493,0,0,0-12.833-2.006c-4.783,0-10.5,1.609-10.5,9.334,0,7.3,7.606,13,7.676,13.066a.934.934,0,0,1,.258.281l17.759-19.6,1.632-1.8,2.008-2.195a4.721,4.721,0,0,1,6.625-.046,4.613,4.613,0,0,1,0,6.579l-1.8,1.634a12.251,12.251,0,0,1,2.776,6.392c.467,6.136-2.1,10.058-7.209,11.06a.3.3,0,0,1-.141.023,1.164,1.164,0,0,1-1.236-.934,1.176,1.176,0,0,1,.935-1.376c3.919-.77,5.717-3.663,5.341-8.61a10.116,10.116,0,0,0-2.192-4.993l-19.366,17.547-1.775,1.609-28,25.387a1.168,1.168,0,0,1-.793.3A1.094,1.094,0,0,1,9151.351,3815.65Zm45.5-47.157a1.154,1.154,0,0,0,0,1.657,1.125,1.125,0,0,0,1.632,0l1.5-1.471c-.538-.537-1.1-1.074-1.7-1.609Zm3.5-3.522-.442.443c.605.537,1.166,1.072,1.7,1.609l.373-.374a1.17,1.17,0,1,0-1.632-1.678Z" transform="translate(-5492.003 -1702)" fill="#1f1f1f"/>
  </g>
</svg>
