<svg xmlns="http://www.w3.org/2000/svg" width="50" height="50" viewBox="0 0 50 50">
  <g id="menu_mob_logo" transform="translate(0.005 -0.002)">
    <g id="Group_573" data-name="Group 573" transform="translate(-0.005 0.003)">
      <path id="Path_727" data-name="Path 727" d="M24.926,15.985,13.641,35.611v.007a1.95,1.95,0,0,1-3.371-1.961L23.236,11.1c.019-.03.045-.056.063-.082a1.986,1.986,0,0,1,.13-.179.719.719,0,0,1,.13-.13c.045-.037.089-.089.141-.13s.115-.089.171-.13a1.271,1.271,0,0,1,.339-.175,1.344,1.344,0,0,1,.171-.063c.06-.019.119-.026.182-.045a1.436,1.436,0,0,1,.182-.022h.186a1.491,1.491,0,0,1,.182,0c.063.007.127.019.19.03s.123.026.182.041.112.041.167.063.13.056.19.086a.414.414,0,0,1,.06.026c.019.007.037.033.06.045a2.182,2.182,0,0,1,.294.223.89.89,0,0,1,.086.082,1.92,1.92,0,0,1,.279.368L33.26,22.649,42.309,6.974A24.995,24.995,0,1,0,18.042,49.005L31.005,26.552Z" transform="translate(0.005 -0.003)" fill="#121212"/>
      <path id="Path_728" data-name="Path 728" d="M76.5,21.69l-9.261,16.1,5.455,9.487a1.958,1.958,0,0,1-.714,2.671h-.007a1.942,1.942,0,0,1-2.649-.722l-4.335-7.534L52.72,63.029A25,25,0,0,0,76.5,21.69Z" transform="translate(-33.103 -13.621)" fill="#121212"/>
    </g>
  </g>
</svg>
