<svg xmlns="http://www.w3.org/2000/svg" width="24" height="48" viewBox="0 0 24 48">
  <g id="nav_back_btn" transform="translate(-278 -73)">
    <g id="back_btn" transform="translate(278 97)">
      <rect id="icon_bg" width="24" height="24" fill="none"/>
      <path id="icon_back" d="M12.979,6.067H3.493L8.511,1.582A.858.858,0,0,0,8.6.372a.956.956,0,0,0-.09-.09,1.118,1.118,0,0,0-1.45,0L.285,6.338a.851.851,0,0,0-.1,1.2.876.876,0,0,0,.1.1l6.776,6.057a1.116,1.116,0,0,0,1.45.1.852.852,0,0,0,.112-1.3.964.964,0,0,0-.112-.1L3.493,7.91h9.486a.925.925,0,0,0,.16-1.843A.855.855,0,0,0,12.979,6.067Z" transform="translate(5.019 4.985)" fill="#fff" fill-rule="evenodd"/>
    </g>
    <g id="back_btn-2" data-name="back_btn" transform="translate(278 73)">
      <rect id="icon_bg-2" data-name="icon_bg" width="24" height="24" fill="none"/>
      <path id="icon_back-2" data-name="icon_back" d="M12.979,6.067H3.493L8.511,1.582A.858.858,0,0,0,8.6.372a.956.956,0,0,0-.09-.09,1.118,1.118,0,0,0-1.45,0L.285,6.338a.851.851,0,0,0-.1,1.2.876.876,0,0,0,.1.1l6.776,6.057a1.116,1.116,0,0,0,1.45.1.852.852,0,0,0,.112-1.3.964.964,0,0,0-.112-.1L3.493,7.91h9.486a.925.925,0,0,0,.16-1.843A.855.855,0,0,0,12.979,6.067Z" transform="translate(5.019 4.985)" fill="#3fffe0" fill-rule="evenodd"/>
    </g>
  </g>
</svg>
