<svg xmlns="http://www.w3.org/2000/svg" width="238" height="38" viewBox="0 0 238 38">
  <g id="nav_logo" transform="translate(0.004 -0.002)">
    <path id="icon" d="M14.906,37.55,24.23,21.333l3.294,5.726a1.475,1.475,0,0,0,2.014.55h0a1.488,1.488,0,0,0,.542-2.03l-4.143-7.211L32.978,6.133A18.993,18.993,0,0,1,14.906,37.55ZM5.639,32.5A19,19,0,0,1,32.155,5.3L25.279,17.212,20.235,8.44a1.406,1.406,0,0,0-.213-.28.644.644,0,0,0-.064-.062,1.75,1.75,0,0,0-.224-.17c-.017-.008-.03-.027-.046-.032a.177.177,0,0,0-.043-.021c-.046-.022-.1-.046-.146-.065s-.084-.035-.127-.048l-.138-.03c-.051-.008-.1-.019-.146-.024a1.3,1.3,0,0,0-.138,0H18.81a.793.793,0,0,0-.138.019c-.049.014-.094.019-.14.032a1.06,1.06,0,0,0-.13.049.909.909,0,0,0-.256.132l-.132.1c-.038.033-.073.07-.105.1a.469.469,0,0,0-.1.1,1.559,1.559,0,0,0-.1.138c-.014.019-.035.041-.049.062L7.809,25.579a1.481,1.481,0,0,0,2.561,1.491v-.005l8.575-14.917,4.623,8.03L13.715,37.243A19,19,0,0,1,5.639,32.5Z" transform="translate(-0.004 0.002)" fill="#fff"/>
    <path id="north" d="M20.373,15.026a8.509,8.509,0,0,1-2.551-6.25,8.414,8.414,0,0,1,2.551-6.225A8.621,8.621,0,0,1,26.737,0,8.622,8.622,0,0,1,33.1,2.551,8.438,8.438,0,0,1,35.649,8.8,8.424,8.424,0,0,1,33.1,15.026a8.606,8.606,0,0,1-6.338,2.527A8.754,8.754,0,0,1,20.373,15.026Zm3.56-9.145a3.933,3.933,0,0,0-1.15,2.9,3.922,3.922,0,0,0,1.15,2.9,4.021,4.021,0,0,0,5.625,0,3.894,3.894,0,0,0,1.126-2.9,4.072,4.072,0,0,0-1.169-2.919,4,4,0,0,0-5.582.024ZM78.943,17.275V11.188H73.615v6.086H68.839V.3h4.776V6.594h5.328V.3h4.824V17.275Zm-21.43,0V4.894H52.876V.3H66.957V4.894H62.338V17.275ZM44.19,11.97h-1.47v5.3H37.944V.3h7.4a6.529,6.529,0,0,1,4.8,1.606,5.618,5.618,0,0,1,1.63,4.157,5.41,5.41,0,0,1-2.916,5.075l3.469,6.132H46.878v0Zm-1.47-4.133h2.457a1.528,1.528,0,0,0,1.679-1.609,1.479,1.479,0,0,0-1.563-1.585H42.721ZM11.783,17.275,4.688,8.894v8.381H0V.3H3.584l7.258,8.5V.3h4.686V17.275Z" transform="translate(154.229 10.001)" fill="#fff"/>
    <path id="telepat" d="M89.229,16.975V1.352H84.085V0H95.778V1.352H90.63V16.975Zm-5.864,0L76.457,2.5,69.53,16.975H67.988L76.091,0h.759L84.9,16.975Zm-26.034,0V0h5.238A5.089,5.089,0,0,1,66.59,1.536a5.249,5.249,0,0,1,1.4,3.653,5.117,5.117,0,0,1-1.466,3.674,5.473,5.473,0,0,1-4.16,1.515H58.734v6.6Zm1.4-7.9h3.65a3.841,3.841,0,0,0,4.181-3.905,3.678,3.678,0,0,0-3.927-3.837h-3.9Zm-15.669,7.9V0H53.287V1.331H44.47V7.718h8.219V9.026H44.47v6.615h8.863v1.333Zm-13.988,0V0h1.4V15.62h9.489v1.355Zm-14.265,0V0H25.034V1.331h-8.82V7.718h8.224V9.026H16.214v6.615h8.863v1.333Zm-9.669,0V1.352H0V0H11.688V1.352H6.545V16.975ZM74.4,14.324v-1.4h4.1v1.4Z" transform="translate(51.916 10.303)" fill="#fff"/>
  </g>
</svg>
