<svg xmlns="http://www.w3.org/2000/svg" width="175" height="28" viewBox="0 0 175 28">
  <g id="nav_logo_black_mob" transform="translate(0.004 -0.002)">
    <path id="icon" d="M10.961,27.669l6.856-11.949,2.422,4.219a1.084,1.084,0,0,0,1.481.405h0a1.1,1.1,0,0,0,.4-1.5l-3.046-5.313,5.173-9.016a13.983,13.983,0,0,1-13.288,23.15ZM4.146,23.95a13.982,13.982,0,0,1,19.5-20.045l-5.056,8.777L14.879,6.219a1.036,1.036,0,0,0-.157-.207.474.474,0,0,0-.047-.046,1.287,1.287,0,0,0-.164-.125c-.012-.006-.022-.02-.034-.024a.13.13,0,0,0-.032-.016c-.034-.016-.072-.034-.107-.048s-.062-.026-.093-.036l-.1-.022c-.037-.006-.071-.014-.107-.018a.951.951,0,0,0-.1,0h-.1a.582.582,0,0,0-.1.014c-.036.01-.069.014-.1.024a.779.779,0,0,0-.1.036.668.668,0,0,0-.188.1l-.1.073c-.028.024-.054.052-.078.074a.345.345,0,0,0-.073.071,1.149,1.149,0,0,0-.073.1c-.01.014-.026.03-.036.046L5.742,18.848a1.09,1.09,0,0,0,1.883,1.1v0L13.93,8.95l3.4,5.917L10.084,27.442A13.961,13.961,0,0,1,4.146,23.95Z" transform="translate(-0.004 0.002)" fill="#1f1f1f"/>
    <path id="north" d="M14.98,11.072a6.276,6.276,0,0,1-1.876-4.6A6.206,6.206,0,0,1,14.98,1.88,6.332,6.332,0,0,1,19.66,0a6.333,6.333,0,0,1,4.677,1.88,6.224,6.224,0,0,1,1.876,4.6,6.214,6.214,0,0,1-1.876,4.587,6.321,6.321,0,0,1-4.66,1.862A6.43,6.43,0,0,1,14.98,11.072ZM17.6,4.334a2.9,2.9,0,0,0-.846,2.133A2.893,2.893,0,0,0,17.6,8.6a2.952,2.952,0,0,0,4.136,0,2.872,2.872,0,0,0,.828-2.133,3,3,0,0,0-.86-2.151,2.936,2.936,0,0,0-4.1.018Zm40.449,8.4V8.244H54.129v4.485H50.617V.222h3.512V4.859h3.918V.222h3.547V12.729Zm-15.757,0V3.606h-3.41V.222H49.233V3.606h-3.4v9.123Zm-9.8-3.909H31.412v3.909H27.9V.222h5.439a4.8,4.8,0,0,1,3.53,1.184,4.145,4.145,0,0,1,1.2,3.063,3.988,3.988,0,0,1-2.144,3.74l2.551,4.518h-4v0ZM31.412,5.775h1.807a1.125,1.125,0,0,0,1.234-1.185A1.088,1.088,0,0,0,33.3,3.421H31.412ZM8.664,12.729,3.447,6.553v6.176H0V.222H2.635L7.972,6.484V.222h3.445V12.729Z" transform="translate(113.402 7.37)" fill="#1f1f1f"/>
    <path id="telepat" d="M65.609,12.508V1H61.827V0h8.6V1H66.64V12.508Zm-4.312,0L56.218,1.845,51.125,12.508H49.991L55.949,0h.558l5.92,12.508Zm-19.143,0V0h3.852a3.737,3.737,0,0,1,2.957,1.132,3.872,3.872,0,0,1,1.028,2.692,3.775,3.775,0,0,1-1.078,2.707,4.02,4.02,0,0,1-3.059,1.116H43.187v4.86Zm1.033-5.822h2.684a2.827,2.827,0,0,0,3.074-2.878A2.707,2.707,0,0,0,46.058.98H43.187ZM31.666,12.508V0h7.516V.98H32.7V5.687h6.043v.964H32.7v4.874h6.517v.983Zm-10.285,0V0h1.03V11.509h6.977v1Zm-10.489,0V0h7.516V.98H11.922V5.687h6.047v.964H11.922v4.874h6.517v.983Zm-7.11,0V1H0V0H8.594V1H4.812V12.508ZM54.7,10.555V9.526h3.013v1.028Z" transform="translate(38.172 7.592)" fill="#1f1f1f"/>
  </g>
</svg>
