<svg xmlns="http://www.w3.org/2000/svg" width="70" height="70" viewBox="0 0 70 70">
  <g id="north_icon_code" transform="translate(0.005 -0.003)">
    <g id="Group_573" data-name="Group 573" transform="translate(-0.005 0.003)">
      <path id="Path_727" data-name="Path 727" d="M34.9,22.378,19.1,49.855v.01A2.73,2.73,0,0,1,14.38,47.12L32.533,15.539c.026-.042.063-.078.089-.115a2.781,2.781,0,0,1,.182-.25,1.007,1.007,0,0,1,.182-.182c.063-.052.125-.125.2-.182s.161-.125.24-.182a1.78,1.78,0,0,1,.474-.245,1.881,1.881,0,0,1,.24-.089c.083-.026.167-.036.255-.063a2.011,2.011,0,0,1,.255-.031h.26a2.087,2.087,0,0,1,.255,0c.089.01.177.026.266.042s.172.036.255.057.156.057.234.089.182.078.266.12a.579.579,0,0,1,.083.036c.026.01.052.047.083.063a3.054,3.054,0,0,1,.412.313,1.246,1.246,0,0,1,.12.115,2.688,2.688,0,0,1,.391.516l9.293,16.158L59.234,9.763A34.993,34.993,0,1,0,25.261,68.607L43.409,37.171Z" transform="translate(0.005 -0.003)" fill="#fff"/>
      <path id="Path_728" data-name="Path 728" d="M86.01,21.69,73.045,44.229l7.636,13.282a2.741,2.741,0,0,1-1,3.74h-.01a2.719,2.719,0,0,1-3.709-1.011L69.894,49.693,52.72,79.565A35,35,0,0,0,86.01,21.69Z" transform="translate(-25.256 -10.393)" fill="#fff"/>
    </g>
  </g>
</svg>
